<svg width="587" height="586" xmlns="http://www.w3.org/2000/svg">
 <style type="text/css">.st0{fill:#4789A8;}</style>

 <g>
  <title>background</title>
  <rect fill="none" id="canvas_background" height="588" width="589" y="-1" x="-1"/>
 </g>
 <g>
  <title>Layer 1</title>
  <g id="svg_1">
   <path id="svg_2" d="m489.6476,1.31739l-393.84,0c-51.96,0 -94.08,42.12 -94.08,94.08l0,394.67c0,51.96 42.12,94.08 94.08,94.08l393.85,0c51.96,0 94.08,-42.12 94.08,-94.08l0,-394.67c-0.01,-51.96 -42.13,-94.08 -94.09,-94.08zm-331.7,511.14c-24.41,0 -48.25,-12.21 -63.36,-31.39c-17.44,-22.67 -16.28,-48.25 -16.28,-75.57l0,-173.8c0,-41.85 0,-83.71 0,-125.56c0,-19.18 15.7,-34.88 34.88,-34.88c19.77,0 35.46,15.69 35.46,34.88l0,315.64c0,1.74 -0.58,3.49 -0.58,5.23c0,1.74 0.58,3.49 0.58,5.23c0,5.23 4.07,9.88 9.3,9.88c19.76,0 35.46,15.69 35.46,34.88c0,19.76 -15.69,35.46 -35.46,35.46zm349.36,-144.16c0,80.22 -62.2,145.9 -138.35,145.9c-75.57,0 -137.77,-65.69 -137.77,-145.9l0,-111.03c0,-19.18 14.53,-34.88 32.55,-34.88c18.6,0 36.62,15.69 36.62,34.88l0,111.03c0,41.85 34.88,75.57 68.59,75.57c39.53,0 69.17,-33.71 69.17,-75.57l0,-106.38c0,-19.77 20.34,-34.88 36.04,-34.88c18.02,0 33.13,15.11 33.13,34.88l0,106.38l0.02,0z" class="st0"/>
  </g>
 </g>
</svg>