<svg width="1690" height="278" xmlns="http://www.w3.org/2000/svg">
 <style type="text/css">.st0{fill:#FFFFFF;}</style>

 <g>
  <title>background</title>
  <rect fill="none" id="canvas_background" height="280" width="1692" y="-1" x="-1"/>
 </g>
 <g>
  <title>Layer 1</title>
  <g id="svg_1">
   <g id="svg_2">
    <path id="svg_3" d="m521.09866,1.32599l-481.44,0c-21.79,0 -39.46,17.67 -39.46,39.46l0,165.53c0,21.79 17.67,39.46 39.46,39.46l481.44,0c21.79,0 39.46,-17.67 39.46,-39.46l0,-165.53c-0.01,-21.79 -17.67,-39.46 -39.46,-39.46zm-458.31,214.39c-10.24,0 -20.24,-5.12 -26.57,-13.17c-7.31,-9.51 -6.83,-20.24 -6.83,-31.7l0,-72.9c0,-17.55 0,-35.11 0,-52.66c0,-8.05 6.58,-14.63 14.63,-14.63c8.29,0 14.87,6.58 14.87,14.63l0,132.39c0,0.73 -0.24,1.46 -0.24,2.19c0,0.73 0.24,1.46 0.24,2.19c0,2.19 1.71,4.14 3.9,4.14c8.29,0 14.87,6.58 14.87,14.63c0,8.3 -6.58,14.89 -14.87,14.89zm146.53,-60.47c0,33.65 -26.09,61.2 -58.03,61.2c-31.7,0 -57.78,-27.55 -57.78,-61.2l0,-46.57c0,-8.05 6.1,-14.63 13.65,-14.63c7.8,0 15.36,6.58 15.36,14.63l0,46.57c0,17.55 14.63,31.7 28.77,31.7c16.58,0 29.01,-14.14 29.01,-31.7l0,-44.62c0,-8.29 8.53,-14.63 15.12,-14.63c7.56,0 13.9,6.34 13.9,14.63l0,44.62zm182.85,-14.14c0,0.49 0,0.73 0,0.98l0,59c0,8.29 -6.34,14.63 -14.38,14.63c-8.05,0 -14.87,-6.34 -14.87,-14.63l0,-59l0,-0.98c0,-0.24 0,-0.49 0,-0.73c0,-9.51 -8.53,-16.82 -18.53,-16.82c-10.73,0 -19.26,7.31 -19.26,16.82l0,0.73c0,0.49 0,0.73 0,0.98l0,59c0,8.29 -6.58,14.63 -14.38,14.63c-8.29,0 -14.63,-6.34 -14.63,-14.63l0,-59l0,-0.98c0,-0.24 0,-0.49 0,-0.73c0,-9.51 -8.53,-16.82 -19.02,-16.82c-10.48,0 -19.02,7.31 -19.02,16.82l0,61.44c0,7.8 -6.34,14.38 -14.63,14.38c-7.8,0 -14.63,-6.58 -14.63,-14.38l0,-93.13c0,-8.05 6.83,-14.87 14.63,-14.87c4.63,0 9.02,2.44 11.22,5.85c6.83,-3.41 14.38,-5.36 22.43,-5.36c12.92,0 24.63,4.88 33.65,13.17c8.53,-8.29 20.24,-13.17 33.65,-13.17c26.09,0 47.79,20.72 47.79,46.08l0,0.72l-0.02,0zm139.2,59.98c0,7.56 -6.1,13.9 -14.14,13.9c-8.05,0 -12.92,-6.34 -12.92,-13.9l0,-2.93c-10.48,9.02 -22.67,14.38 -37.3,14.38c-32.67,0 -59,-26.33 -59,-58.76s26.33,-59 59,-59c14.63,0 26.82,5.61 37.3,14.14l0,-1.22c0,-7.56 4.88,-13.9 12.92,-13.9c8.05,0 14.14,6.34 14.14,13.9l0,93.39z" class="st0"/>
    <path id="svg_4" d="m467.00866,123.30599c-16.82,0 -30.72,13.65 -30.72,30.48s13.9,30.23 30.72,30.23c16.58,0 30.48,-13.41 30.48,-30.23s-13.9,-30.48 -30.48,-30.48z" class="st0"/>
   </g>
   <g id="svg_5">
    <path id="svg_6" d="m758.15866,169.52599l0,1.4c-0.93,23.57 -21.24,42.72 -46.22,42.72c-12.37,0 -23.81,-4.9 -32.21,-12.6c-8.4,7.7 -19.61,12.6 -32.21,12.6c-25.44,0 -46.22,-19.84 -46.22,-44.12l0,-0.93c0,-0.47 0,-0.7 0,-0.93l0,-56.72c0,-7.7 6.3,-14.01 14,-14.01c7.7,0 14,6.3 14,14.01l0,56.72l0,0.93c0,0.23 0,0.47 0,0.93c0,8.87 8.17,16.11 18.21,16.11s18.21,-7.24 18.21,-16.11l0,-0.93c0,-0.47 0,-0.7 0,-0.93l0,-56.72c0,-7.7 6.3,-14.01 14,-14.01c7.7,0 14.01,6.3 14.01,14.01l0,56.72l0,0.93c0,0.23 0,0.47 0,0.93c0,8.87 8.17,16.11 18.21,16.11c10.04,0 18.21,-7.24 18.21,-16.11l0,-59.05c0,-7.7 6.3,-14 14,-14c7.7,0 14.01,6.3 14.01,14l0,59.05z" class="st0"/>
    <path id="svg_7" d="m872.75866,161.81599l-71.89,0c3.27,13.3 15.17,23.57 29.64,23.57c7.47,0 18.44,-3.03 24.51,-8.87c5.6,-5.37 14.47,-5.37 19.84,0.23c5.6,5.37 5.37,14.47 -0.23,19.84c-12.84,12.37 -30.81,16.57 -44.12,16.57c-32.44,0 -58.35,-26.14 -58.35,-58.59c0,-31.98 25.91,-58.59 58.35,-58.59c3.5,0 6.77,0.23 10.27,0.93c15.87,3.03 29.41,12.84 37.81,26.84c3.73,6.54 7.94,15.17 7.47,22.87c0,2.1 -0.93,4.43 -1.87,6.77c-1.86,4.46 -5.83,8.43 -11.43,8.43zm-67.93,-23.57l49.48,0c-4.67,-8.87 -13.31,-14 -23.81,-14c-10.73,-0.01 -20.07,5.36 -25.67,14z" class="st0"/>
    <path id="svg_8" d="m1017.93866,153.18599c0,32.68 -26.61,59.05 -59.05,59.05c-12.37,0 -24.04,-3.74 -33.38,-10.27c-1.87,5.6 -7.24,9.8 -13.54,9.8c-7.94,0 -14.24,-6.3 -14.24,-14l0,-148.45c0,-7.7 6.3,-14.24 14.24,-14.24c7.7,0 14,6.54 14,14.24l0,54.62c9.57,-6.07 20.77,-9.8 32.91,-9.8c32.45,-0.01 59.06,26.37 59.06,59.05zm-28.25,0c0,-17.04 -14,-30.81 -30.81,-30.81c-17.04,0 -30.81,13.77 -30.81,30.81c0,17.04 13.77,30.81 30.81,30.81c16.81,0 30.81,-13.78 30.81,-30.81z" class="st0"/>
    <path id="svg_9" d="m1146.30866,49.54599l0,148.45c0,7.7 -6.3,14.01 -14.24,14.01c-6.3,0 -11.67,-3.97 -13.54,-9.8c-9.34,6.54 -21.01,10.27 -33.38,10.27c-32.45,0 -59.05,-26.38 -59.05,-59.05c0,-32.45 26.61,-59.05 59.05,-59.05c12.14,0 23.34,3.73 32.91,9.8l0,-54.62c0,-7.7 6.3,-14.24 14,-14.24c7.95,-0.01 14.25,6.53 14.25,14.23zm-30.34,103.87c0,-17.04 -13.77,-30.81 -30.81,-30.81c-17.04,0 -30.81,13.77 -30.81,30.81c0,17.04 13.77,30.81 30.81,30.81c17.04,0 30.81,-13.77 30.81,-30.81z" class="st0"/>
    <path id="svg_10" d="m1258.57866,161.81599l-71.89,0c3.27,13.3 15.17,23.57 29.64,23.57c7.47,0 18.44,-3.03 24.51,-8.87c5.6,-5.37 14.47,-5.37 19.84,0.23c5.6,5.37 5.37,14.47 -0.23,19.84c-12.84,12.37 -30.81,16.57 -44.12,16.57c-32.44,0 -58.35,-26.14 -58.35,-58.59c0,-31.98 25.91,-58.59 58.35,-58.59c3.5,0 6.77,0.23 10.27,0.93c15.87,3.03 29.41,12.84 37.81,26.84c3.74,6.54 7.94,15.17 7.47,22.87c0,2.1 -0.93,4.43 -1.87,6.77c-1.86,4.46 -5.82,8.43 -11.43,8.43zm-67.92,-23.57l49.48,0c-4.67,-8.87 -13.3,-14 -23.81,-14c-10.73,-0.01 -20.07,5.36 -25.67,14z" class="st0"/>
    <path id="svg_11" d="m1326.49866,212.93599c-14.94,0 -29.88,-6.07 -37.58,-13.3c-5.6,-5.14 -6.07,-14 -0.7,-19.61c5.14,-5.84 14,-6.07 19.61,-0.93c4.2,3.97 19.84,9.34 28.71,3.5c2.33,-1.4 3.74,-3.97 3.74,-6.54c0,-3.27 -2.8,-5.6 -5.14,-6.54c-2.1,-1.17 -5.83,-1.17 -10.04,-1.17c-5.6,0 -11.91,-0.23 -18.44,-2.57c-12.14,-3.97 -21.94,-16.57 -22.87,-28.71c-1.17,-14.7 5.14,-23.81 10.5,-28.94c11.67,-10.74 28.71,-12.37 41.08,-10.27c9.34,1.63 16.34,4.9 22.17,10.27c5.6,5.14 6.07,14.01 0.93,19.61c-3.03,3.27 -7.47,4.9 -11.9,4.44c-2.1,-0.23 -4.2,-0.93 -6.07,-2.1c-3.27,-2.33 -5.6,-3.97 -9.8,-4.67c-7,-1.17 -20.07,-0.7 -19.14,9.34c0.23,1.17 2.33,4.2 4.2,4.9c2.33,0.7 5.83,0.7 9.57,0.7c6.07,0.23 13.77,0.23 21.47,3.74c12.84,5.83 21.24,18.44 21.24,31.98c0,11.9 -6.07,23.11 -16.11,29.88c-7.92,5.12 -16.56,6.99 -25.43,6.99z" class="st0"/>
    <path id="svg_12" d="m1401.42866,75.45599c-8.17,0 -14.71,-6.54 -14.71,-14.24l0,-1.17c0,-8.17 6.54,-14.47 14.71,-14.47c7.7,0 14.24,6.3 14.24,14.47l0,1.17c-0.01,7.7 -6.54,14.24 -14.24,14.24zm0,137.01c-8.17,0 -14.71,-6.54 -14.71,-14.47l0,-90.1c0,-7.94 6.54,-14.24 14.71,-14.24c7.7,0 14.24,6.3 14.24,14.24l0,90.1c-0.01,7.94 -6.54,14.47 -14.24,14.47z" class="st0"/>
    <path id="svg_13" d="m1552.20866,108.36599l0,105.74c0,33.15 -26.84,60.22 -59.99,60.22c-17.51,0 -34.08,-7.47 -45.52,-20.77c-4.9,-6.07 -4.43,-15.17 1.63,-20.07c5.83,-5.37 14.94,-4.67 20.07,1.4c5.84,7 14.71,10.74 23.81,10.74c17.51,0 31.51,-14 31.51,-31.51l0,-10.27c-8.64,5.14 -18.91,8.17 -29.64,8.17c-32.21,0 -58.59,-26.14 -58.59,-58.35c0,-32.21 26.38,-58.35 58.59,-58.35c10.97,0 21.47,3.03 30.34,8.64c2.1,-5.6 7.24,-9.8 13.54,-9.8c7.95,-0.03 14.25,6.51 14.25,14.21zm-28.48,45.28c0,-16.57 -13.3,-29.88 -29.64,-29.88c-16.57,0 -29.88,13.3 -29.88,29.88c0,16.34 13.3,29.88 29.88,29.88c16.34,0 29.64,-13.54 29.64,-29.88z" class="st0"/>
    <path id="svg_14" d="m1685.01866,153.88599l0,44.12c0,7.7 -6.07,14.01 -13.77,14.01c-7.94,0 -14,-6.3 -14,-14.01l0,-44.12c0,-16.57 -12.14,-29.88 -26.84,-29.88c-18.21,0 -27.54,18.21 -27.54,34.31l0,39.68c0,7.7 -6.3,14.01 -14,14.01c-7.7,0 -14,-6.3 -14,-14.01l0,-89.16c0,-7.7 6.3,-14 14,-14c6.07,0 11.2,3.97 13.07,9.57c8.4,-5.37 17.97,-8.4 28.48,-8.4c30.09,-0.01 54.6,25.9 54.6,57.88z" class="st0"/>
   </g>
  </g>
 </g>
</svg>