<?xml version="1.0" encoding="utf-8"?>
<!-- Generator: Adobe Illustrator 24.2.3, SVG Export Plug-In . SVG Version: 6.00 Build 0)  -->
<svg version="1.1" id="Layer_1" xmlns="http://www.w3.org/2000/svg" xmlns:xlink="http://www.w3.org/1999/xlink" x="0px" y="0px"
	 viewBox="0 0 1920 1080" style="enable-background:new 0 0 1920 1080;" xml:space="preserve">
<style type="text/css">
	.st0{fill:#FFFFFF;}
</style>
<g>
	<path class="st0" d="M1533.92,248.59H386.08c-51.96,0-94.08,42.12-94.08,94.08v394.67c0,51.96,42.12,94.08,94.08,94.08h1147.85
		c51.96,0,94.08-42.12,94.08-94.08V342.67C1628,290.71,1585.88,248.59,1533.92,248.59z M441.22,759.73
		c-24.41,0-48.25-12.21-63.36-31.39c-17.44-22.67-16.28-48.25-16.28-75.57v-173.8c0-41.85,0-83.71,0-125.56
		c0-19.18,15.7-34.88,34.88-34.88c19.77,0,35.46,15.69,35.46,34.88v315.64c0,1.74-0.58,3.49-0.58,5.23c0,1.74,0.58,3.49,0.58,5.23
		c0,5.23,4.07,9.88,9.3,9.88c19.76,0,35.46,15.69,35.46,34.88C476.68,744.03,460.99,759.73,441.22,759.73z M790.58,615.57
		c0,80.22-62.2,145.9-138.35,145.9c-75.57,0-137.77-65.69-137.77-145.9V504.54c0-19.18,14.53-34.88,32.55-34.88
		c18.6,0,36.62,15.69,36.62,34.88v111.03c0,41.85,34.88,75.57,68.59,75.57c39.53,0,69.17-33.71,69.17-75.57V509.19
		c0-19.77,20.34-34.88,36.04-34.88c18.02,0,33.13,15.11,33.13,34.88V615.57z M1226.53,581.85c0,1.16,0,1.74,0,2.33v140.67
		c0,19.76-15.11,34.88-34.3,34.88c-19.18,0-35.46-15.11-35.46-34.88V584.18v-2.33c0-0.58,0-1.16,0-1.74
		c0-22.67-20.35-40.11-44.18-40.11c-25.58,0-45.92,17.44-45.92,40.11v1.74c0,1.16,0,1.74,0,2.33v140.67
		c0,19.76-15.69,34.88-34.3,34.88c-19.76,0-34.88-15.11-34.88-34.88V584.18v-2.33c0-0.58,0-1.16,0-1.74
		c0-22.67-20.34-40.11-45.34-40.11c-24.99,0-45.34,17.44-45.34,40.11v146.48c0,18.6-15.11,34.3-34.88,34.3
		c-18.6,0-34.88-15.7-34.88-34.3V504.54c0-19.18,16.28-35.46,34.88-35.46c11.05,0,21.51,5.81,26.74,13.95
		c16.27-8.14,34.3-12.79,53.48-12.79c30.81,0,58.71,11.62,80.22,31.39c20.35-19.77,48.25-31.39,80.22-31.39
		c62.2,0,113.93,49.41,113.93,109.86V581.85z M1558.43,724.85c0,18.02-14.53,33.13-33.71,33.13c-19.18,0-30.81-15.11-30.81-33.13
		v-6.98c-25,21.51-54.06,34.3-88.94,34.3c-77.89,0-140.67-62.78-140.67-140.09s62.78-140.67,140.67-140.67
		c34.88,0,63.94,13.37,88.94,33.71v-2.91c0-18.02,11.62-33.13,30.81-33.13c19.18,0,33.71,15.11,33.71,33.13V724.85z"/>
	<path class="st0" d="M1404.97,539.42c-40.11,0-73.24,32.55-73.24,72.66c0,40.11,33.13,72.08,73.24,72.08
		c39.53,0,72.66-31.97,72.66-72.08C1477.63,571.97,1444.5,539.42,1404.97,539.42z"/>
</g>
</svg>
