<svg width="1920" height="343" xmlns="http://www.w3.org/2000/svg">
 <style type="text/css">.st0{fill:#4789A8;}</style>

 <g>
  <title>background</title>
  <rect fill="none" id="canvas_background" height="345" width="1922" y="-1" x="-1"/>
 </g>
 <g>
  <title>Layer 1</title>
  <path id="svg_1" d="m1920,246.22211c-33.44,-25.93 -73.9,-47.44 -120.43,-63.98c-50.51,-17.96 -110.04,-30.74 -176.93,-37.97c-68.19,-7.37 -146.5,-9.26 -232.76,-5.61c-88.3,3.74 -187.94,13.4 -296.17,28.72c-253.58,35.9 -470.17,46.6 -643.75,31.82c-177.97,-15.16 -308.42,-56.79 -387.71,-123.72c-26.43,-22.31 -47.32,-47.78 -62.25,-75.8l0,113.89c5.48,5.25 11.16,10.39 17.09,15.4c46.46,39.22 107.28,70.99 180.78,94.45c69.68,22.24 152.49,37.55 246.15,45.53c178.82,15.23 400.71,4.38 659.51,-32.25c207.67,-29.4 379.79,-37.08 511.6,-22.83c61.46,6.65 115.63,18.2 161,34.33c42.25,15.02 78.12,34.48 106.62,57.83c13.97,11.45 26.37,24.01 37.27,37.7l0,-97.51l-0.02,0z" class="st0"/>
 </g>
</svg>