<svg width="1920" height="804" xmlns="http://www.w3.org/2000/svg">
 <style type="text/css">.st0{fill:#4789A8;}</style>

 <g>
  <title>background</title>
  <rect fill="none" id="canvas_background" height="806" width="1922" y="-1" x="-1"/>
 </g>
 <g>
  <title>Layer 1</title>
  <path id="svg_1" d="m1920,1.03422c-29.66,43.77 -56.61,89.53 -83.16,134.62c-50.07,85.05 -101.85,172.99 -169.85,244.01c-35.91,37.51 -73.47,67.56 -114.83,91.87c-46.51,27.34 -96.75,46.87 -153.59,59.7c-123.07,27.79 -294.51,20.03 -476.02,11.83c-199.6,-9.03 -405.99,-18.36 -589.53,14.91c-140.82,25.53 -251.05,73.94 -333.02,146.68l0,100.92c31,-38.3 68.57,-70.53 113.55,-97.51c62.94,-37.76 138.81,-64.32 231.94,-81.21c175.77,-31.87 378.16,-22.71 573.88,-13.86c186.34,8.43 362.35,16.39 494.6,-13.47c119.69,-27.02 218.98,-83.1 303.56,-171.44c73.63,-76.9 127.51,-168.41 179.61,-256.91c7.65,-12.99 15.24,-25.88 22.84,-38.64l0,-131.5l0.02,0z" class="st0"/>
 </g>
</svg>