<svg width="1920" height="276" xmlns="http://www.w3.org/2000/svg">
 <style type="text/css">.st0{fill:#4789A8;}</style>

 <g>
  <title>background</title>
  <rect fill="none" id="canvas_background" height="278" width="1922" y="-1" x="-1"/>
 </g>
 <g>
  <title>Layer 1</title>
  <path id="svg_1" d="m1920,194.05469c-120.23,-66.41 -298.27,-84.86 -502.49,-84.86c-125.36,0 -260.64,6.96 -398.36,14.05c-242.04,12.45 -492.32,25.33 -693.11,-1.42c-105.83,-14.1 -188.71,-37.67 -253.4,-72.05c-27.83,-14.79 -51.98,-31.46 -72.64,-50.15l0,88.23c12.59,8.39 25.85,16.32 39.79,23.73c72.17,38.36 162.78,64.4 277.01,79.62c207.19,27.6 460.74,14.56 705.95,1.94c205.88,-10.59 400.33,-20.6 566.56,-8.22c87.78,6.54 158.97,18.72 217.64,37.24c46.05,14.54 83.38,32.62 113.05,54.83l0,-82.94z" class="st0"/>
 </g>
</svg>