<svg width="1919.9999999999998" height="285" xmlns="http://www.w3.org/2000/svg">
 <style type="text/css">.st0{fill:none;}
	.st1{fill:#4789A8;}</style>

 <g>
  <title>background</title>
  <rect fill="none" id="canvas_background" height="287" width="1922" y="-1" x="-1"/>
 </g>
 <g>
  <title>Layer 1</title>
  <path id="svg_2" d="m1850,192.6c-47.4,-13.3 -106.4,-20.6 -180.3,-22.3c-134,-3 -317.6,12.7 -577.7,49.5c-238.1,33.7 -447.3,40.3 -621.8,19.7c-86.2,-10.2 -163,-27.1 -228.4,-50.3c-65.6,-23.3 -120.2,-53.2 -162.3,-88.7c-34.9,-29.5 -61.5,-63.1 -79.5,-100.5l0,58.8c16.6,23.2 36.6,44.8 60.2,64.6c89.5,75.5 226.3,124.6 406.5,145.9c177.1,20.9 388.9,14.2 629.5,-19.8c258.5,-36.6 440.5,-52.2 572.9,-49.3c122.2,2.8 204.8,21.7 250.9,57.8l0,-36.4c-19.4,-11.7 -42.6,-21.4 -70,-29z" class="st1"/>
 </g>
</svg>