<svg width="1920" height="706" xmlns="http://www.w3.org/2000/svg">
 <style type="text/css">.st0{fill:#4789A8;}</style>

 <g>
  <title>background</title>
  <rect fill="none" id="canvas_background" height="708" width="1922" y="-1" x="-1"/>
 </g>
 <g>
  <title>Layer 1</title>
  <path id="svg_1" d="m1921,0.76649c-32.5,46.9 -61.7,96.5 -90.4,145.3c-51.4,87.3 -104.5,177.6 -175.2,251.4c-37.8,39.4 -77.3,71.1 -120.9,96.7c-49,28.8 -101.9,49.4 -161.7,62.9c-145.1,32.8 -340.4,25.7 -547.2,18.1c-169.5,-6.2 -344.8,-12.6 -501.5,3.3c-85.2,8.6 -156.9,22.9 -219.5,43.7c-38.4,12.9 -72.8,27.9 -103.6,45.5l0,34.9c32.8,-20.4 70.2,-37.6 113.1,-51.8c60.4,-20.1 130.1,-33.9 213,-42.3c154.6,-15.7 328.8,-9.3 497.3,-3.2c208.8,7.6 405.9,14.8 554.9,-18.8c62.8,-14.2 118.5,-35.9 170.3,-66.3c46,-27.1 87.7,-60.4 127.4,-101.8c73.1,-76.3 127.1,-168.1 179.4,-256.9c21.5,-36.5 42.6,-72.3 64.6,-106.6l0,-54.1z" class="st0"/>
 </g>
</svg>