<svg width="1920.0000000000002" height="700" xmlns="http://www.w3.org/2000/svg">
 <style type="text/css">.st0{fill:#4789A8;}</style>

 <g>
  <title>background</title>
  <rect fill="none" id="canvas_background" height="702" width="1922" y="-1" x="-1"/>
 </g>
 <g>
  <title>Layer 1</title>
  <path stroke="null" id="svg_1" d="m1920.77142,-0.37472c-32.5297,46.9 -61.75638,96.5 -90.4826,145.3c-51.44697,87.3 -104.59549,177.6 -175.36009,251.4c-37.83454,39.4 -77.37063,71.1 -121.01047,96.7c-49.04477,28.8 -101.99311,49.4 -161.84775,62.9c-145.23258,32.8 -340.71104,25.7 -547.7,18.1c-169.65488,-6.2 -345.11506,-12.6 -501.95824,3.3c-85.27785,8.6 -157.04337,22.9 -219.70057,43.7c-38.43509,12.9 -72.86652,27.9 -103.69466,45.5l0,34.9c32.82997,-20.4 70.26414,-37.6 113.20334,-51.8c60.45519,-20.1 130.21888,-33.9 213.19463,-42.3c154.74126,-15.7 329.10044,-9.3 497.7544,-3.2c208.99079,7.6 406.27089,14.8 555.40703,-18.8c62.85738,-14.2 118.60828,-35.9 170.45561,-66.3c46.04203,-27.1 87.78013,-60.4 127.51641,-101.8c73.16679,-76.3 127.21614,-168.1 179.56392,-256.9c21.51965,-36.5 42.63893,-72.3 64.65903,-106.6l0,-54.1z" class="st0"/>
 </g>
</svg>