<svg width="1920" height="226" xmlns="http://www.w3.org/2000/svg">
 <style type="text/css">.st0{fill:#4789A8;}</style>

 <g>
  <title>background</title>
  <rect fill="none" id="canvas_background" height="228" width="1922" y="-1" x="-1"/>
 </g>
 <g>
  <title>Layer 1</title>
  <path id="svg_1" d="m1920,176.98182c-89.3,-37.6 -207.1,-50.5 -341.4,-50.5c-145.6,0 -310.6,15.2 -479.5,30.8c-248.8,23 -506.2,46.7 -715.3,22.3c-111.8,-13.1 -199.6,-38.5 -268.6,-77.6c-37,-21 -68.7,-46.4 -94.3,-75.4c-7.4,-8.4 -14.4,-17.2 -20.9,-26.4l0,48c27.5,30.8 61.2,57.6 100.4,79.8c72.5,41.2 164.1,67.8 279.9,81.3c212.3,24.8 471.2,0.9 721.6,-22.2c198.5,-18.3 385.9,-35.6 545.8,-29.4c85.1,3.3 154.4,13 211.7,29.7c22.1,6.4 42.3,13.8 60.6,22.3l0,-32.7z" class="st0"/>
 </g>
</svg>